<svg width="58" height="58" viewBox="0 0 58 58" fill="none" xmlns="http://www.w3.org/2000/svg">
<path fill-rule="evenodd" clip-rule="evenodd" d="M29.0001 8.05566C40.5667 8.05566 49.9445 17.4335 49.9445 29.0001C49.9445 40.5667 40.5667 49.9445 29.0001 49.9445C17.4335 49.9445 8.05566 40.5667 8.05566 29.0001C8.05566 17.4335 17.4335 8.05566 29.0001 8.05566ZM29.0001 11.2779C19.2131 11.2779 11.2779 19.2131 11.2779 29.0001C11.2779 38.7871 19.2131 46.7223 29.0001 46.7223C38.7871 46.7223 46.7223 38.7871 46.7223 29.0001C46.7223 19.2131 38.7871 11.2779 29.0001 11.2779ZM22.5557 20.9446C22.5557 19.6791 23.9476 18.9077 25.0207 19.5783L37.9096 27.6339C38.9192 28.2649 38.9192 29.7353 37.9096 30.3663L25.0207 38.4219C23.9476 39.0926 22.5557 38.3211 22.5557 37.0557V20.9446ZM25.7779 34.1488L34.0158 29.0001L25.7779 23.8514V34.1488Z" fill="url(#paint0_linear_9048_90164)"/>
<defs>
<linearGradient id="paint0_linear_9048_90164" x1="51.9255" y1="62.056" x2="37.7392" y2="29.1563" gradientUnits="userSpaceOnUse">
<stop offset="0.075419" stop-color="#FBB033"/>
<stop offset="0.6141" stop-color="#FDC73D"/>
<stop offset="0.959" stop-color="#FFE248"/>
</linearGradient>
</defs>
</svg>
