<svg width="58" height="58" viewBox="0 0 58 58" fill="none" xmlns="http://www.w3.org/2000/svg">
<path fill-rule="evenodd" clip-rule="evenodd" d="M35.7168 25.5179V14.2976C35.7168 10.5796 32.7094 7.56549 28.9999 7.56549C25.2903 7.56549 22.2829 10.5796 22.2829 14.2976V25.5179C22.2829 29.2359 25.2903 32.25 28.9999 32.25C32.7094 32.25 35.7168 29.2359 35.7168 25.5179ZM28.9999 3.07739C22.8171 3.07739 17.805 8.10086 17.805 14.2976V25.5179C17.805 31.7147 22.8171 36.7381 28.9999 36.7381C35.1826 36.7381 40.1947 31.7147 40.1947 25.5179V14.2976C40.1947 8.10086 35.1826 3.07739 28.9999 3.07739ZM26.7609 45.591C16.6856 44.4747 8.84912 35.9135 8.84912 25.5179H13.3271C13.3271 34.1933 20.344 41.2262 28.9999 41.2262C37.6557 41.2262 44.6726 34.1933 44.6726 25.5179H49.1506C49.1506 35.9135 41.3141 44.4747 31.2388 45.591V54.6905H26.7609V45.591Z" fill="url(#paint0_linear_9048_90119)"/>
<defs>
<linearGradient id="paint0_linear_9048_90119" x1="51.0565" y1="69.6136" x2="30.7126" y2="32.7737" gradientUnits="userSpaceOnUse">
<stop offset="0.075419" stop-color="#FBB033"/>
<stop offset="0.6141" stop-color="#FDC73D"/>
<stop offset="0.959" stop-color="#FFE248"/>
</linearGradient>
</defs>
</svg>
