<svg width="58" height="58" viewBox="0 0 58 58" fill="none" xmlns="http://www.w3.org/2000/svg">
<path d="M34.3226 8.70273L33.9026 10.2466L34.3226 8.70273ZM33.8063 9.5031L32.5014 10.429L33.8063 9.5031ZM9.30368 33.5132L10.2558 32.2273L9.30368 33.5132ZM28.8125 48.2591C19.7559 48.2591 12.1484 42.0326 10.0452 33.625L6.94085 34.4015C9.39181 44.1995 18.2529 51.4591 28.8125 51.4591V48.2591ZM48.1569 28.9147C48.1569 39.5977 39.4954 48.2591 28.8125 48.2591V51.4591C41.2628 51.4591 51.3569 41.365 51.3569 28.9147H48.1569ZM33.9026 10.2466C42.1177 12.4812 48.1569 19.9953 48.1569 28.9147H51.3569C51.3569 18.5147 44.315 9.76261 34.7425 7.15882L33.9026 10.2466ZM32.5014 10.429C34.3274 13.0024 35.4005 16.1454 35.4005 19.5435H38.6005C38.6005 15.4603 37.3085 11.674 35.1112 8.57722L32.5014 10.429ZM35.4005 19.5435C35.4005 28.253 28.3391 35.3144 19.6296 35.3144V38.5144C30.1064 38.5144 38.6005 30.0203 38.6005 19.5435H35.4005ZM19.6296 35.3144C16.1168 35.3144 12.8763 34.1676 10.2558 32.2273L8.35159 34.7991C11.5043 37.1334 15.4081 38.5144 19.6296 38.5144V35.3144ZM34.7425 7.15882C33.749 6.88857 32.8705 7.37607 32.44 8.0545C32.0211 8.71444 31.9516 9.65417 32.5014 10.429L35.1112 8.57722C35.3874 8.96661 35.3481 9.44413 35.1418 9.76923C34.9237 10.1128 34.4401 10.3928 33.9026 10.2466L34.7425 7.15882ZM10.0452 33.625C10.1804 34.1652 9.89066 34.6428 9.54282 34.8538C9.21364 35.0535 8.73538 35.0833 8.35159 34.7991L10.2558 32.2273C9.49221 31.662 8.55129 31.7126 7.88306 32.1179C7.19617 32.5346 6.69104 33.4028 6.94085 34.4015L10.0452 33.625Z" fill="url(#paint0_linear_9048_90155)"/>
<defs>
<linearGradient id="paint0_linear_9048_90155" x1="53.4604" y1="64.2898" x2="38.4561" y2="29.4108" gradientUnits="userSpaceOnUse">
<stop offset="0.075419" stop-color="#FBB033"/>
<stop offset="0.6141" stop-color="#FDC73D"/>
<stop offset="0.959" stop-color="#FFE248"/>
</linearGradient>
</defs>
</svg>
