<svg width="37" height="36" viewBox="0 0 37 36" fill="none" xmlns="http://www.w3.org/2000/svg">
<path d="M36.5 18.0087C36.5 27.9247 28.4208 36 18.5 36C8.57915 36 0.5 27.9247 0.5 18.0087C0.5 8.07525 8.57915 0 18.5 0C28.4208 0 36.5 8.07525 36.5 18.0087Z" fill="#FFCD00"/>
<path d="M25.7001 18.0088C25.7001 18.4637 25.5569 18.9204 25.2706 19.2861C25.2169 19.3578 24.9663 19.6535 24.7694 19.846L24.662 19.951C23.1586 21.5449 19.418 23.942 17.5208 24.7101C17.5208 24.7276 16.3933 25.1843 15.8563 25.2001H15.7848C14.9615 25.2001 14.1919 24.7469 13.7981 24.012C13.5833 23.6078 13.3865 22.4355 13.3686 22.4198C13.2075 21.3682 13.1001 19.7585 13.1001 17.9913C13.1001 16.1384 13.2075 14.4569 13.4044 13.4246C13.4044 13.4071 13.6012 12.4623 13.7265 12.1473C13.9234 11.6941 14.2813 11.3075 14.7288 11.0625C15.0867 10.8893 15.4626 10.8 15.8563 10.8C16.268 10.8193 17.0376 11.08 17.3419 11.2025C19.3464 11.9723 23.1765 14.4919 24.6441 16.0316C24.8947 16.2766 25.1632 16.5758 25.2348 16.644C25.539 17.029 25.7001 17.5014 25.7001 18.0088Z" fill="#121212"/>
</svg>
